<svg xmlns="http://www.w3.org/2000/svg" width="204" height="41" viewBox="0 0 204 41" fill="none">
<path fill-rule="evenodd" clip-rule="evenodd" d="M20 36C28.8366 36 36 28.8366 36 20C36 11.1634 28.8366 4 20 4C11.1634 4 4 11.1634 4 20C4 28.8366 11.1634 36 20 36ZM22.4696 16.3621C23.8334 14.9981 23.8334 12.7869 22.4696 11.4229C21.1057 10.059 18.8944 10.059 17.5305 11.4229C16.1666 12.7869 16.1666 14.9981 17.5305 16.3621L20 18.8316L22.4696 16.3621ZM23.638 22.4696C25.0019 23.8335 27.2132 23.8335 28.5771 22.4696C29.941 21.1057 29.941 18.8944 28.5771 17.5305C27.2132 16.1666 25.0019 16.1666 23.638 17.5305L21.1685 20.0001L23.638 22.4696ZM22.4696 28.5771C23.8334 27.2132 23.8334 25.0019 22.4696 23.638L20 21.1685L17.5305 23.638C16.1666 25.0019 16.1666 27.2132 17.5305 28.5771C18.8944 29.941 21.1057 29.941 22.4696 28.5771ZM11.4229 22.4696C10.059 21.1057 10.059 18.8944 11.4229 17.5305C12.7869 16.1666 14.9981 16.1666 16.3621 17.5305L18.8316 20.0001L16.3621 22.4696C14.9981 23.8335 12.7869 23.8335 11.4229 22.4696Z" fill="#9FA1A4"/>
<path d="M50.2266 30V12.7031H56.8828C58.5 12.7031 59.75 12.8672 60.6328 13.1953C61.5234 13.5234 62.1406 14.0234 62.4844 14.6953C62.8359 15.3594 63.0117 16.2109 63.0117 17.25C63.0117 18.1328 62.8672 18.8516 62.5781 19.4062C62.2891 19.9609 61.6953 20.3516 60.7969 20.5781C61.5938 20.6875 62.2031 20.9297 62.625 21.3047C63.0547 21.6719 63.3477 22.1484 63.5039 22.7344C63.668 23.3203 63.75 23.9922 63.75 24.75C63.75 26.5625 63.2812 27.8906 62.3438 28.7344C61.4141 29.5781 59.875 30 57.7266 30H50.2266ZM53.707 19.6641H57.3047C57.9844 19.6641 58.4727 19.5742 58.7695 19.3945C59.0742 19.2148 59.2656 18.9492 59.3438 18.5977C59.4219 18.2383 59.4609 17.8008 59.4609 17.2852C59.4609 16.6758 59.3906 16.2148 59.25 15.9023C59.1094 15.582 58.8398 15.3672 58.4414 15.2578C58.043 15.1406 57.4492 15.082 56.6602 15.082H53.707V19.6641ZM53.707 27.5625H57.082C57.9883 27.5625 58.668 27.4883 59.1211 27.3398C59.582 27.1914 59.8906 26.9102 60.0469 26.4961C60.2031 26.0742 60.2812 25.4648 60.2812 24.668C60.2812 24.0898 60.2227 23.5859 60.1055 23.1562C59.9961 22.7188 59.7383 22.3789 59.332 22.1367C58.9336 21.8867 58.3008 21.7617 57.4336 21.7617H53.707V27.5625Z" fill="#9FA1A4"/>
<path d="M67.2891 30V12.7031H74.7539C76.2852 12.7031 77.4688 12.918 78.3047 13.3477C79.1406 13.7773 79.7188 14.3789 80.0391 15.1523C80.3672 15.9258 80.5312 16.832 80.5312 17.8711C80.5312 18.582 80.4648 19.25 80.332 19.875C80.207 20.4922 79.9609 21.0391 79.5938 21.5156C79.2266 21.9922 78.6914 22.375 77.9883 22.6641L81.3281 30H77.7188L74.6836 23.168H70.7695V30H67.2891ZM70.7695 20.6836H75.0469C75.6406 20.6836 76.0898 20.5664 76.3945 20.332C76.707 20.0898 76.918 19.7695 77.0273 19.3711C77.1445 18.9648 77.2031 18.5156 77.2031 18.0234C77.2031 17.5547 77.1523 17.1016 77.0508 16.6641C76.957 16.2266 76.7656 15.8711 76.4766 15.5977C76.1953 15.3164 75.7656 15.1758 75.1875 15.1758H70.7695V20.6836Z" fill="#9FA1A4"/>
<path d="M88.3711 23.3555L82.4062 12.7031H86.0742L90.1289 20.1328L94.1719 12.7031H97.6875L91.8398 23.3555V30H88.3711V23.3555Z" fill="#9FA1A4"/>
<path d="M106.828 30.3047C105.289 30.3047 104.039 30.1562 103.078 29.8594C102.125 29.5547 101.395 29.1328 100.887 28.5938C100.379 28.0547 100.031 27.4219 99.8438 26.6953C99.6562 25.9688 99.5625 25.1797 99.5625 24.3281V18.5508C99.5625 17.6758 99.6523 16.8672 99.832 16.125C100.02 15.375 100.363 14.7227 100.863 14.168C101.371 13.6133 102.105 13.1836 103.066 12.8789C104.027 12.5664 105.281 12.4102 106.828 12.4102C108.305 12.4102 109.492 12.5625 110.391 12.8672C111.297 13.1641 111.984 13.5859 112.453 14.1328C112.922 14.6797 113.238 15.3242 113.402 16.0664C113.566 16.8008 113.648 17.6055 113.648 18.4805V18.6914L110.238 19.0898V18.2109C110.238 17.3984 110.137 16.7734 109.934 16.3359C109.73 15.8906 109.383 15.582 108.891 15.4102C108.398 15.2305 107.711 15.1406 106.828 15.1406C105.539 15.1406 104.586 15.3438 103.969 15.75C103.352 16.1562 103.043 16.9531 103.043 18.1406V24.6797C103.043 25.4688 103.18 26.0742 103.453 26.4961C103.727 26.9102 104.141 27.1953 104.695 27.3516C105.258 27.5 105.973 27.5742 106.84 27.5742C107.723 27.5742 108.41 27.5 108.902 27.3516C109.395 27.1953 109.738 26.9062 109.934 26.4844C110.137 26.0547 110.238 25.4297 110.238 24.6094V24.0586H113.648V24.375C113.648 25.2266 113.57 26.0117 113.414 26.7305C113.258 27.4492 112.949 28.0781 112.488 28.6172C112.027 29.1484 111.344 29.5625 110.438 29.8594C109.531 30.1562 108.328 30.3047 106.828 30.3047Z" fill="#9FA1A4"/>
<path d="M117.375 30V12.7031H124.84C126.371 12.7031 127.555 12.918 128.391 13.3477C129.227 13.7773 129.805 14.3789 130.125 15.1523C130.453 15.9258 130.617 16.832 130.617 17.8711C130.617 18.582 130.551 19.25 130.418 19.875C130.293 20.4922 130.047 21.0391 129.68 21.5156C129.312 21.9922 128.777 22.375 128.074 22.6641L131.414 30H127.805L124.77 23.168H120.855V30H117.375ZM120.855 20.6836H125.133C125.727 20.6836 126.176 20.5664 126.48 20.332C126.793 20.0898 127.004 19.7695 127.113 19.3711C127.23 18.9648 127.289 18.5156 127.289 18.0234C127.289 17.5547 127.238 17.1016 127.137 16.6641C127.043 16.2266 126.852 15.8711 126.562 15.5977C126.281 15.3164 125.852 15.1758 125.273 15.1758H120.855V20.6836Z" fill="#9FA1A4"/>
<path d="M138.457 23.3555L132.492 12.7031H136.16L140.215 20.1328L144.258 12.7031H147.773L141.926 23.3555V30H138.457V23.3555Z" fill="#9FA1A4"/>
<path d="M150.059 26.6719H153.551V30H150.059V26.6719Z" fill="#9FA1A4"/>
<path d="M161.566 30V15.3516H156.75V12.7031H169.852V15.3516H165.035V30H161.566Z" fill="#9FA1A4"/>
<path d="M172.523 12.7031H183.855V15.3281H175.992V19.9219H182.965V22.4297H175.992V27.375H183.984V30H172.523V12.7031Z" fill="#9FA1A4"/>
<path d="M194.602 30.3047C193.062 30.3047 191.812 30.1562 190.852 29.8594C189.898 29.5547 189.168 29.1328 188.66 28.5938C188.152 28.0547 187.805 27.4219 187.617 26.6953C187.43 25.9688 187.336 25.1797 187.336 24.3281V18.5508C187.336 17.6758 187.426 16.8672 187.605 16.125C187.793 15.375 188.137 14.7227 188.637 14.168C189.145 13.6133 189.879 13.1836 190.84 12.8789C191.801 12.5664 193.055 12.4102 194.602 12.4102C196.078 12.4102 197.266 12.5625 198.164 12.8672C199.07 13.1641 199.758 13.5859 200.227 14.1328C200.695 14.6797 201.012 15.3242 201.176 16.0664C201.34 16.8008 201.422 17.6055 201.422 18.4805V18.6914L198.012 19.0898V18.2109C198.012 17.3984 197.91 16.7734 197.707 16.3359C197.504 15.8906 197.156 15.582 196.664 15.4102C196.172 15.2305 195.484 15.1406 194.602 15.1406C193.312 15.1406 192.359 15.3438 191.742 15.75C191.125 16.1562 190.816 16.9531 190.816 18.1406V24.6797C190.816 25.4688 190.953 26.0742 191.227 26.4961C191.5 26.9102 191.914 27.1953 192.469 27.3516C193.031 27.5 193.746 27.5742 194.613 27.5742C195.496 27.5742 196.184 27.5 196.676 27.3516C197.168 27.1953 197.512 26.9062 197.707 26.4844C197.91 26.0547 198.012 25.4297 198.012 24.6094V24.0586H201.422V24.375C201.422 25.2266 201.344 26.0117 201.188 26.7305C201.031 27.4492 200.723 28.0781 200.262 28.6172C199.801 29.1484 199.117 29.5625 198.211 29.8594C197.305 30.1562 196.102 30.3047 194.602 30.3047Z" fill="#9FA1A4"/>
</svg>