<svg xmlns="http://www.w3.org/2000/svg" width="151" height="39" viewBox="0 0 151 39" fill="none">
<path d="M16.4992 2.00195H37.5808L22.0816 24.9749H1L16.4992 2.00195Z" fill="#9FA1A4"/>
<path d="M17.4251 27.1061L11.4219 36.0042H33.5035L49.0027 13.0312H32.7051L23.2091 27.1061H17.4251Z" fill="#9FA1A4"/>
<path d="M67.4727 24.4805L66.9922 27.2227H58.6367L59.1172 24.4805H67.4727ZM62.7266 10.1602L59.7617 27.2227H56.3281L59.2812 10.1602H62.7266Z" fill="#9FA1A4"/>
<path d="M81.7578 17.1094L81.2773 19.8516H72.6172L73.0977 17.1094H81.7578ZM75.3359 10.1602L72.3711 27.2227H68.9375L71.8906 10.1602H75.3359ZM85.3906 10.1602L82.4258 27.2227H79.0156L81.9688 10.1602H85.3906Z" fill="#9FA1A4"/>
<path d="M85.6367 25.6523C85.6289 25.1211 85.8047 24.6836 86.1641 24.3398C86.5312 23.9961 86.9766 23.8242 87.5 23.8242C88 23.8164 88.4297 23.9727 88.7891 24.293C89.1562 24.6055 89.3438 25.0195 89.3516 25.5352C89.3594 26.0664 89.1797 26.5039 88.8125 26.8477C88.4531 27.1914 88.0117 27.3633 87.4883 27.3633C86.9883 27.3711 86.5547 27.2188 86.1875 26.9062C85.8281 26.5859 85.6445 26.168 85.6367 25.6523Z" fill="#9FA1A4"/>
<path d="M102.523 10.1602L99.5703 27.2227H96.1367L99.1016 10.1602H102.523ZM107.609 10.1602L107.129 12.9141H93.6172L94.0977 10.1602H107.609Z" fill="#9FA1A4"/>
<path d="M111.23 27.457C110.363 27.4414 109.582 27.2773 108.887 26.9648C108.191 26.6445 107.609 26.207 107.141 25.6523C106.68 25.0977 106.34 24.4531 106.121 23.7188C105.902 22.9844 105.824 22.1953 105.887 21.3516L105.934 20.8711C106.027 19.9883 106.242 19.1484 106.578 18.3516C106.914 17.5547 107.363 16.8516 107.926 16.2422C108.488 15.625 109.152 15.1445 109.918 14.8008C110.691 14.4492 111.551 14.2852 112.496 14.3086C113.379 14.3242 114.133 14.5039 114.758 14.8477C115.383 15.1914 115.887 15.6523 116.27 16.2305C116.652 16.8086 116.914 17.4688 117.055 18.2109C117.195 18.9453 117.223 19.7148 117.137 20.5195L116.949 21.9258H107.152L107.516 19.6758L113.984 19.6875L114.043 19.3945C114.105 18.9648 114.086 18.5664 113.984 18.1992C113.883 17.8242 113.691 17.5234 113.41 17.2969C113.129 17.0703 112.754 16.9492 112.285 16.9336C111.746 16.918 111.293 17.0312 110.926 17.2734C110.559 17.5156 110.258 17.8359 110.023 18.2344C109.789 18.6328 109.609 19.0664 109.484 19.5352C109.359 19.9961 109.27 20.4414 109.215 20.8711L109.168 21.3398C109.129 21.7539 109.141 22.168 109.203 22.582C109.266 22.9883 109.387 23.3555 109.566 23.6836C109.754 24.0117 110.008 24.2773 110.328 24.4805C110.656 24.6836 111.066 24.793 111.559 24.8086C112.184 24.8242 112.758 24.7031 113.281 24.4453C113.812 24.1797 114.289 23.8281 114.711 23.3906L116.188 25.1719C115.836 25.7031 115.387 26.1406 114.84 26.4844C114.301 26.8203 113.719 27.0664 113.094 27.2227C112.469 27.3867 111.848 27.4648 111.23 27.457Z" fill="#9FA1A4"/>
<path d="M123.418 24.832C123.832 24.8398 124.199 24.7617 124.52 24.5977C124.848 24.4336 125.117 24.2031 125.328 23.9062C125.539 23.6094 125.68 23.2656 125.75 22.875L128.855 22.8633C128.785 23.8086 128.48 24.6289 127.941 25.3242C127.41 26.0195 126.734 26.5547 125.914 26.9297C125.102 27.3047 124.238 27.4805 123.324 27.457C122.41 27.4414 121.625 27.2578 120.969 26.9062C120.32 26.5547 119.797 26.0859 119.398 25.5C119 24.9062 118.719 24.2305 118.555 23.4727C118.398 22.7148 118.359 21.918 118.438 21.082L118.473 20.7305C118.566 19.8555 118.777 19.0273 119.105 18.2461C119.434 17.457 119.871 16.7656 120.418 16.1719C120.973 15.5703 121.625 15.1055 122.375 14.7773C123.125 14.4414 123.973 14.2852 124.918 14.3086C125.895 14.3242 126.73 14.5469 127.426 14.9766C128.121 15.3984 128.648 15.9766 129.008 16.7109C129.375 17.4453 129.551 18.2891 129.535 19.2422L126.441 19.2305C126.449 18.8477 126.398 18.4844 126.289 18.1406C126.18 17.7891 125.992 17.5078 125.727 17.2969C125.469 17.0781 125.117 16.957 124.672 16.9336C124.148 16.918 123.711 17.0273 123.359 17.2617C123.008 17.4883 122.723 17.7969 122.504 18.1875C122.285 18.5703 122.117 18.9883 122 19.4414C121.883 19.8867 121.801 20.3203 121.754 20.7422L121.73 21.082C121.691 21.4336 121.668 21.8242 121.66 22.2539C121.652 22.6758 121.695 23.082 121.789 23.4727C121.883 23.8555 122.055 24.1758 122.305 24.4336C122.562 24.6836 122.934 24.8164 123.418 24.832Z" fill="#9FA1A4"/>
<path d="M136.344 9.22266L133.215 27.2227H129.922L133.051 9.22266H136.344ZM133.953 20.4375L133.098 20.4492C133.184 19.7305 133.352 19.0039 133.602 18.2695C133.859 17.5352 134.207 16.8672 134.645 16.2656C135.082 15.6562 135.617 15.1719 136.25 14.8125C136.891 14.4453 137.633 14.2734 138.477 14.2969C139.188 14.3125 139.777 14.457 140.246 14.7305C140.723 14.9961 141.094 15.3594 141.359 15.8203C141.625 16.2734 141.801 16.793 141.887 17.3789C141.973 17.957 141.98 18.5664 141.91 19.207L140.574 27.2227H137.258L138.617 19.1719C138.664 18.7578 138.652 18.3867 138.582 18.0586C138.52 17.7227 138.367 17.457 138.125 17.2617C137.891 17.0586 137.543 16.9531 137.082 16.9453C136.574 16.9297 136.137 17.0195 135.77 17.2148C135.41 17.4102 135.105 17.6797 134.855 18.0234C134.605 18.3594 134.41 18.7383 134.27 19.1602C134.129 19.5742 134.023 20 133.953 20.4375Z" fill="#9FA1A4"/>
</svg>