<svg xmlns="http://www.w3.org/2000/svg" width="160" height="30" viewBox="0 0 160 30" fill="none">
<g clip-path="url(#clip0_18931_537)">
<path d="M0 26.6953C4.91448 26.6953 8.89841 22.7113 8.89841 17.7969C8.89841 12.8824 4.91448 8.89844 0 8.89844V15.1273C1.47433 15.1273 2.66951 16.3225 2.66951 17.7969C2.66951 19.2712 1.47433 20.4664 0 20.4664V26.6953Z" fill="#9FA1A4"/>
<path d="M29.6614 11.8627C28.1408 11.381 26.5215 11.1211 24.8414 11.1211C16.0363 11.1211 8.89844 18.2591 8.89844 27.0641C8.89844 27.9479 8.97036 28.8149 9.10862 29.6595H19.0145C18.6609 28.8667 18.4643 27.9884 18.4643 27.0641C18.4643 23.5421 21.3194 20.6869 24.8414 20.6869C26.7664 20.6869 28.4921 21.5398 29.6614 22.8883V11.8627Z" fill="#9FA1A4"/>
<path d="M1.5625 0C2.30024 6.67374 7.95829 11.8646 14.8287 11.8646C21.699 11.8646 27.3571 6.67374 28.0948 0H18.5493C17.96 1.4773 16.5162 2.52121 14.8287 2.52121C13.1411 2.52121 11.6974 1.4773 11.108 0H1.5625Z" fill="#9FA1A4"/>
<path d="M39.9844 6.02734H44.9531C46.2969 6.02734 47.3281 6.13281 48.0469 6.34375C48.7734 6.55469 49.3164 6.85938 49.6758 7.25781C50.043 7.65625 50.2891 8.14062 50.4141 8.71094C50.5469 9.27344 50.6133 10.1484 50.6133 11.3359V12.9883C50.6133 14.1992 50.4883 15.082 50.2383 15.6367C49.9883 16.1914 49.5273 16.6172 48.8555 16.9141C48.1914 17.2109 47.3203 17.3594 46.2422 17.3594H44.918V25H39.9844V6.02734ZM44.918 9.27344V14.1016C45.0586 14.1094 45.1797 14.1133 45.2812 14.1133C45.7344 14.1133 46.0469 14.0039 46.2188 13.7852C46.3984 13.5586 46.4883 13.0938 46.4883 12.3906V10.832C46.4883 10.1836 46.3867 9.76172 46.1836 9.56641C45.9805 9.37109 45.5586 9.27344 44.918 9.27344Z" fill="#9FA1A4"/>
<path d="M59.9414 6.02734L62.7656 25H57.7148L57.4688 21.5898H55.6992L55.4062 25H50.2969L52.8047 6.02734H59.9414ZM57.3281 18.2266C57.0781 16.0781 56.8281 13.4258 56.5781 10.2695C56.0781 13.8945 55.7656 16.5469 55.6406 18.2266H57.3281Z" fill="#9FA1A4"/>
<path d="M74.625 6.02734V25H70.3008L67.7344 16.375V25H63.6094V6.02734H67.7344L70.5 14.5703V6.02734H74.625Z" fill="#9FA1A4"/>
<path d="M85.1367 6.02734L87.9609 25H82.9102L82.6641 21.5898H80.8945L80.6016 25H75.4922L78 6.02734H85.1367ZM82.5234 18.2266C82.2734 16.0781 82.0234 13.4258 81.7734 10.2695C81.2734 13.8945 80.9609 16.5469 80.8359 18.2266H82.5234Z" fill="#9FA1A4"/>
<path d="M88.8047 6.02734H92.4961C94.8789 6.02734 96.4883 6.13672 97.3242 6.35547C98.168 6.57422 98.8086 6.93359 99.2461 7.43359C99.6836 7.93359 99.957 8.49219 100.066 9.10938C100.176 9.71875 100.23 10.9219 100.23 12.7188V19.3633C100.23 21.0664 100.148 22.207 99.9844 22.7852C99.8281 23.3555 99.5508 23.8047 99.1523 24.1328C98.7539 24.4531 98.2617 24.6797 97.6758 24.8125C97.0898 24.9375 96.207 25 95.0273 25H88.8047V6.02734ZM93.7383 9.27344V21.7539C94.4492 21.7539 94.8867 21.6133 95.0508 21.332C95.2148 21.043 95.2969 20.2656 95.2969 19V11.6289C95.2969 10.7695 95.2695 10.2188 95.2148 9.97656C95.1602 9.73438 95.0352 9.55859 94.8398 9.44922C94.6445 9.33203 94.2773 9.27344 93.7383 9.27344Z" fill="#9FA1A4"/>
<path d="M113.344 17.1367C113.344 19.043 113.297 20.3945 113.203 21.1914C113.117 21.9805 112.836 22.7031 112.359 23.3594C111.891 24.0156 111.254 24.5195 110.449 24.8711C109.645 25.2227 108.707 25.3984 107.637 25.3984C106.621 25.3984 105.707 25.2344 104.895 24.9062C104.09 24.5703 103.441 24.0703 102.949 23.4062C102.457 22.7422 102.164 22.0195 102.07 21.2383C101.977 20.457 101.93 19.0898 101.93 17.1367V13.8906C101.93 11.9844 101.973 10.6367 102.059 9.84766C102.152 9.05078 102.434 8.32422 102.902 7.66797C103.379 7.01172 104.02 6.50781 104.824 6.15625C105.629 5.80469 106.566 5.62891 107.637 5.62891C108.652 5.62891 109.562 5.79688 110.367 6.13281C111.18 6.46094 111.832 6.95703 112.324 7.62109C112.816 8.28516 113.109 9.00781 113.203 9.78906C113.297 10.5703 113.344 11.9375 113.344 13.8906V17.1367ZM108.41 10.9023C108.41 10.0195 108.359 9.45703 108.258 9.21484C108.164 8.96484 107.965 8.83984 107.66 8.83984C107.402 8.83984 107.203 8.94141 107.062 9.14453C106.93 9.33984 106.863 9.92578 106.863 10.9023V19.7617C106.863 20.8633 106.906 21.543 106.992 21.8008C107.086 22.0586 107.297 22.1875 107.625 22.1875C107.961 22.1875 108.176 22.0391 108.27 21.7422C108.363 21.4453 108.41 20.7383 108.41 19.6211V10.9023Z" fill="#9FA1A4"/>
<path d="M125.191 6.02734L123.469 14.418L126.07 25H121.5C120.953 23.1094 120.453 20.8086 120 18.0977C119.875 19.293 119.703 20.5625 119.484 21.9062L119.016 25H114.211L115.992 14.418L114.211 6.02734H118.98C119.066 6.55078 119.238 7.42188 119.496 8.64062C119.699 9.57031 119.867 10.4219 120 11.1953L121.055 6.02734H125.191Z" fill="#9FA1A4"/>
<path d="M137.789 6.02734V25H133.465L130.898 16.375V25H126.773V6.02734H130.898L133.664 14.5703V6.02734H137.789Z" fill="#9FA1A4"/>
</g>
<defs>
<clipPath id="clip0_18931_537">
<rect width="160" height="30" fill="white"/>
</clipPath>
</defs>
</svg>