<svg xmlns="http://www.w3.org/2000/svg" width="167" height="41" viewBox="0 0 167 41" fill="none">
<path fill-rule="evenodd" clip-rule="evenodd" d="M8.65429 3.89279C7.22363 4.89315 5.92993 6.0759 4.80688 7.40732C9.39618 6.98125 15.2267 7.67697 21.9959 11.0616C29.2245 14.6758 35.0453 14.798 39.0963 14.0166C38.7287 12.9037 38.2659 11.8341 37.7178 10.8173C33.0805 11.3064 27.1355 10.659 20.2071 7.1949C15.8075 4.9951 11.9293 4.08893 8.65429 3.89279ZM35.0089 6.96157C31.3468 2.86992 26.0249 0.294922 20.1015 0.294922C18.362 0.294922 16.6742 0.517029 15.0652 0.934402C17.2444 1.52901 19.5594 2.39891 21.9959 3.61719C27.0685 6.15345 31.4479 6.97008 35.0089 6.96157ZM39.9624 17.923C35.0684 18.8894 28.3103 18.6909 20.2071 14.6393C12.6315 10.8515 6.60199 10.8992 2.53546 11.8029C2.32556 11.8495 2.1206 11.8985 1.92059 11.9495C1.38818 13.1074 0.963196 14.325 0.658264 15.5894C0.983948 15.5024 1.32049 15.4197 1.66772 15.3425C6.60113 14.2462 13.5716 14.2938 21.9959 18.506C29.5716 22.2938 35.6011 22.2461 39.6677 21.3424C39.807 21.3115 39.9443 21.2795 40.0793 21.2465C40.0941 20.9312 40.1015 20.6139 40.1015 20.2949C40.1015 19.4924 40.0543 18.7009 39.9624 17.923ZM39.4263 25.4672C34.5798 26.3145 28.0185 25.9893 20.2071 22.0837C12.6315 18.2959 6.60199 18.3436 2.53546 19.2473C1.63281 19.4478 0.820801 19.6921 0.104493 19.95C0.10254 20.0647 0.101562 20.1797 0.101562 20.2949C0.101562 31.3406 9.05585 40.2949 20.1015 40.2949C29.3586 40.2949 37.1468 34.0058 39.4263 25.4672Z" fill="#9FA1A4"/>
<path d="M61.1135 30.288C59.9775 30.288 58.9215 30.08 57.9455 29.664C56.9855 29.248 56.1535 28.672 55.4495 27.936C54.7615 27.184 54.2575 26.312 53.9375 25.32L56.6495 24.144C57.0815 25.168 57.7055 25.976 58.5215 26.568C59.3375 27.144 60.2575 27.432 61.2815 27.432C61.8575 27.432 62.3535 27.344 62.7695 27.168C63.2015 26.976 63.5295 26.72 63.7535 26.4C63.9935 26.08 64.1135 25.696 64.1135 25.248C64.1135 24.72 63.9535 24.288 63.6335 23.952C63.3295 23.6 62.8655 23.328 62.2415 23.136L58.8095 22.032C57.4175 21.6 56.3695 20.952 55.6655 20.088C54.9615 19.224 54.6095 18.208 54.6095 17.04C54.6095 16.016 54.8575 15.112 55.3535 14.328C55.8655 13.544 56.5695 12.936 57.4655 12.504C58.3775 12.056 59.4175 11.832 60.5855 11.832C61.6575 11.832 62.6415 12.024 63.5375 12.408C64.4335 12.776 65.2015 13.296 65.8415 13.968C66.4975 14.624 66.9855 15.4 67.3055 16.296L64.6175 17.496C64.2655 16.6 63.7375 15.912 63.0335 15.432C62.3295 14.936 61.5135 14.688 60.5855 14.688C60.0415 14.688 59.5615 14.784 59.1455 14.976C58.7295 15.152 58.4015 15.408 58.1615 15.744C57.9375 16.064 57.8255 16.448 57.8255 16.896C57.8255 17.392 57.9855 17.832 58.3055 18.216C58.6255 18.584 59.1135 18.872 59.7695 19.08L63.0575 20.112C64.4815 20.576 65.5455 21.216 66.2495 22.032C66.9695 22.848 67.3295 23.856 67.3295 25.056C67.3295 26.08 67.0655 26.984 66.5375 27.768C66.0095 28.552 65.2815 29.168 64.3535 29.616C63.4255 30.064 62.3455 30.288 61.1135 30.288Z" fill="#9FA1A4"/>
<path d="M70.0046 30V11.832H73.1486V19.512L72.7166 19.056C73.0206 18.272 73.5166 17.68 74.2046 17.28C74.9086 16.864 75.7246 16.656 76.6526 16.656C77.6126 16.656 78.4606 16.864 79.1966 17.28C79.9486 17.696 80.5326 18.28 80.9486 19.032C81.3646 19.768 81.5726 20.624 81.5726 21.6V30H78.4286V22.344C78.4286 21.768 78.3166 21.272 78.0926 20.856C77.8686 20.44 77.5566 20.12 77.1566 19.896C76.7726 19.656 76.3166 19.536 75.7886 19.536C75.2766 19.536 74.8206 19.656 74.4206 19.896C74.0206 20.12 73.7086 20.44 73.4846 20.856C73.2606 21.272 73.1486 21.768 73.1486 22.344V30H70.0046Z" fill="#9FA1A4"/>
<path d="M88.1911 30.288C87.2791 30.288 86.4871 30.136 85.8151 29.832C85.1431 29.528 84.6231 29.096 84.2551 28.536C83.8871 27.96 83.7031 27.296 83.7031 26.544C83.7031 25.824 83.8631 25.184 84.1831 24.624C84.5031 24.048 84.9991 23.568 85.6711 23.184C86.3431 22.8 87.1911 22.528 88.2151 22.368L92.4871 21.672V24.072L88.8151 24.696C88.1911 24.808 87.7271 25.008 87.4231 25.296C87.1191 25.584 86.9671 25.96 86.9671 26.424C86.9671 26.872 87.1351 27.232 87.4711 27.504C87.8231 27.76 88.2551 27.888 88.7671 27.888C89.4231 27.888 89.9991 27.752 90.4951 27.48C91.0071 27.192 91.3991 26.8 91.6711 26.304C91.9591 25.808 92.1031 25.264 92.1031 24.672V21.312C92.1031 20.752 91.8791 20.288 91.4311 19.92C90.9991 19.536 90.4231 19.344 89.7031 19.344C89.0311 19.344 88.4311 19.528 87.9031 19.896C87.3911 20.248 87.0151 20.72 86.7751 21.312L84.2071 20.064C84.4631 19.376 84.8631 18.784 85.4071 18.288C85.9671 17.776 86.6231 17.376 87.3751 17.088C88.1271 16.8 88.9431 16.656 89.8231 16.656C90.8951 16.656 91.8391 16.856 92.6551 17.256C93.4711 17.64 94.1031 18.184 94.5511 18.888C95.0151 19.576 95.2471 20.384 95.2471 21.312V30H92.2711V27.768L92.9431 27.72C92.6071 28.28 92.2071 28.752 91.7431 29.136C91.2791 29.504 90.7511 29.792 90.1591 30C89.5671 30.192 88.9111 30.288 88.1911 30.288Z" fill="#9FA1A4"/>
<path d="M98.153 30V16.944H101.105V19.512L100.865 19.056C101.169 18.272 101.665 17.68 102.353 17.28C103.057 16.864 103.873 16.656 104.801 16.656C105.761 16.656 106.609 16.864 107.345 17.28C108.097 17.696 108.681 18.28 109.097 19.032C109.513 19.768 109.721 20.624 109.721 21.6V30H106.577V22.344C106.577 21.768 106.465 21.272 106.241 20.856C106.017 20.44 105.705 20.12 105.305 19.896C104.921 19.656 104.465 19.536 103.937 19.536C103.425 19.536 102.969 19.656 102.569 19.896C102.169 20.12 101.857 20.44 101.633 20.856C101.409 21.272 101.297 21.768 101.297 22.344V30H98.153Z" fill="#9FA1A4"/>
<path d="M118.716 35.28C117.74 35.28 116.836 35.12 116.004 34.8C115.172 34.48 114.452 34.032 113.844 33.456C113.252 32.896 112.82 32.232 112.548 31.464L115.476 30.36C115.668 30.968 116.044 31.456 116.604 31.824C117.18 32.208 117.884 32.4 118.716 32.4C119.356 32.4 119.916 32.28 120.396 32.04C120.892 31.8 121.276 31.448 121.548 30.984C121.82 30.536 121.956 29.992 121.956 29.352V26.376L122.556 27.096C122.108 27.88 121.508 28.472 120.756 28.872C120.004 29.272 119.148 29.472 118.188 29.472C116.972 29.472 115.884 29.192 114.924 28.632C113.964 28.072 113.212 27.304 112.668 26.328C112.124 25.352 111.852 24.256 111.852 23.04C111.852 21.808 112.124 20.712 112.668 19.752C113.212 18.792 113.956 18.04 114.9 17.496C115.844 16.936 116.916 16.656 118.116 16.656C119.092 16.656 119.948 16.864 120.684 17.28C121.436 17.68 122.06 18.264 122.556 19.032L122.124 19.824V16.944H125.1V29.352C125.1 30.488 124.82 31.504 124.26 32.4C123.716 33.296 122.964 34 122.004 34.512C121.06 35.024 119.964 35.28 118.716 35.28ZM118.572 26.568C119.244 26.568 119.828 26.424 120.324 26.136C120.836 25.832 121.236 25.416 121.524 24.888C121.812 24.36 121.956 23.752 121.956 23.064C121.956 22.392 121.804 21.792 121.5 21.264C121.212 20.72 120.812 20.296 120.3 19.992C119.804 19.688 119.228 19.536 118.572 19.536C117.916 19.536 117.324 19.688 116.796 19.992C116.268 20.296 115.852 20.72 115.548 21.264C115.26 21.792 115.116 22.392 115.116 23.064C115.116 23.736 115.26 24.336 115.548 24.864C115.852 25.392 116.26 25.808 116.772 26.112C117.3 26.416 117.9 26.568 118.572 26.568Z" fill="#9FA1A4"/>
<path d="M126.86 30L131.42 23.448L126.836 16.944H130.532L134.108 22.224H132.452L136.028 16.944H139.7L135.14 23.448L139.676 30H136.004L132.476 24.744H134.084L130.556 30H126.86Z" fill="#9FA1A4"/>
<path d="M141.419 30V16.944H144.563V30H141.419ZM141.419 15.48V12.12H144.563V15.48H141.419Z" fill="#9FA1A4"/>
</svg>