<svg xmlns="http://www.w3.org/2000/svg" width="144" height="35" viewBox="0 0 144 35" fill="none">
<path d="M32.1556 12.1109C32.1557 10.1206 31.5547 8.17671 30.4313 6.53377C29.3079 4.89083 27.7144 3.62548 25.8597 2.90348C24.005 2.18147 21.9754 2.03647 20.0369 2.48746C18.0983 2.93845 16.3412 3.96441 14.9956 5.43095H2.51562V31.7709H28.8656V19.4609C29.8998 18.5359 30.7274 17.4032 31.2943 16.1367C31.8612 14.8702 32.1547 13.4985 32.1556 12.1109ZM27.0856 12.1109C27.0876 13.0646 26.8066 13.9975 26.2782 14.7915C25.7497 15.5854 24.9977 16.2048 24.1171 16.5711C23.2365 16.9375 22.2671 17.0344 21.3314 16.8495C20.3958 16.6647 19.536 16.2064 18.8609 15.5327C18.1858 14.859 17.7258 14.0002 17.539 13.0649C17.3522 12.1297 17.4471 11.16 17.8116 10.2787C18.1761 9.39741 18.7939 8.64404 19.5867 8.11397C20.3796 7.5839 21.3119 7.30096 22.2656 7.30095C23.5422 7.30095 24.7667 7.8074 25.6703 8.70916C26.574 9.61092 27.083 10.8343 27.0856 12.1109ZM23.7956 26.7009H7.58563V10.5009H12.5256C12.4302 11.0324 12.38 11.571 12.3756 12.1109C12.3783 14.7331 13.4211 17.2471 15.2753 19.1013C17.1294 20.9554 19.6434 21.9983 22.2656 22.0009C22.7783 21.9982 23.2899 21.9547 23.7956 21.8709V26.7009Z" fill="#9FA1A4"/>
<path d="M41.8898 27V12H37.2578V9.12003H49.7378V12H45.1778V27H41.8898Z" fill="#9FA1A4"/>
<path d="M52.0887 32.304C51.7367 32.304 51.3927 32.272 51.0567 32.208C50.7207 32.16 50.4167 32.072 50.1447 31.944V29.304C50.3527 29.352 50.6007 29.4 50.8887 29.448C51.1927 29.496 51.4727 29.52 51.7287 29.52C52.4487 29.52 52.9687 29.352 53.2887 29.016C53.6247 28.68 53.9207 28.24 54.1767 27.696L55.0407 25.68L54.9927 28.32L49.3047 13.944H52.6887L56.6727 24.552H55.4727L59.4327 13.944H62.8407L57.1527 28.32C56.8167 29.168 56.4087 29.888 55.9287 30.48C55.4487 31.072 54.8887 31.52 54.2487 31.824C53.6247 32.144 52.9047 32.304 52.0887 32.304Z" fill="#9FA1A4"/>
<path d="M68.0584 27.288C67.1464 27.288 66.3544 27.136 65.6824 26.832C65.0104 26.528 64.4904 26.096 64.1224 25.536C63.7544 24.96 63.5704 24.296 63.5704 23.544C63.5704 22.824 63.7304 22.184 64.0504 21.624C64.3704 21.048 64.8664 20.568 65.5384 20.184C66.2104 19.8 67.0584 19.528 68.0824 19.368L72.3544 18.672V21.072L68.6824 21.696C68.0584 21.808 67.5944 22.008 67.2904 22.296C66.9864 22.584 66.8344 22.96 66.8344 23.424C66.8344 23.872 67.0024 24.232 67.3384 24.504C67.6904 24.76 68.1224 24.888 68.6344 24.888C69.2904 24.888 69.8664 24.752 70.3624 24.48C70.8744 24.192 71.2664 23.8 71.5384 23.304C71.8264 22.808 71.9704 22.264 71.9704 21.672V18.312C71.9704 17.752 71.7464 17.288 71.2984 16.92C70.8664 16.536 70.2904 16.344 69.5704 16.344C68.8984 16.344 68.2984 16.528 67.7704 16.896C67.2584 17.248 66.8824 17.72 66.6424 18.312L64.0744 17.064C64.3304 16.376 64.7304 15.784 65.2744 15.288C65.8344 14.776 66.4904 14.376 67.2424 14.088C67.9944 13.8 68.8104 13.656 69.6904 13.656C70.7624 13.656 71.7064 13.856 72.5224 14.256C73.3384 14.64 73.9704 15.184 74.4184 15.888C74.8824 16.576 75.1144 17.384 75.1144 18.312V27H72.1384V24.768L72.8104 24.72C72.4744 25.28 72.0744 25.752 71.6104 26.136C71.1464 26.504 70.6184 26.792 70.0264 27C69.4344 27.192 68.7784 27.288 68.0584 27.288Z" fill="#9FA1A4"/>
<path d="M81.9803 27.288C81.0683 27.288 80.2763 27.136 79.6043 26.832C78.9323 26.528 78.4123 26.096 78.0443 25.536C77.6763 24.96 77.4923 24.296 77.4923 23.544C77.4923 22.824 77.6523 22.184 77.9723 21.624C78.2923 21.048 78.7883 20.568 79.4603 20.184C80.1323 19.8 80.9803 19.528 82.0043 19.368L86.2763 18.672V21.072L82.6043 21.696C81.9803 21.808 81.5163 22.008 81.2123 22.296C80.9083 22.584 80.7563 22.96 80.7563 23.424C80.7563 23.872 80.9243 24.232 81.2603 24.504C81.6123 24.76 82.0443 24.888 82.5563 24.888C83.2123 24.888 83.7883 24.752 84.2843 24.48C84.7963 24.192 85.1883 23.8 85.4603 23.304C85.7483 22.808 85.8923 22.264 85.8923 21.672V18.312C85.8923 17.752 85.6683 17.288 85.2203 16.92C84.7883 16.536 84.2123 16.344 83.4923 16.344C82.8203 16.344 82.2203 16.528 81.6923 16.896C81.1803 17.248 80.8043 17.72 80.5643 18.312L77.9963 17.064C78.2523 16.376 78.6523 15.784 79.1963 15.288C79.7563 14.776 80.4123 14.376 81.1643 14.088C81.9163 13.8 82.7323 13.656 83.6123 13.656C84.6843 13.656 85.6283 13.856 86.4443 14.256C87.2603 14.64 87.8923 15.184 88.3403 15.888C88.8043 16.576 89.0363 17.384 89.0363 18.312V27H86.0603V24.768L86.7323 24.72C86.3963 25.28 85.9963 25.752 85.5323 26.136C85.0683 26.504 84.5403 26.792 83.9483 27C83.3563 27.192 82.7003 27.288 81.9803 27.288Z" fill="#9FA1A4"/>
<path d="M91.9422 27V8.83203H95.0862V27H91.9422Z" fill="#9FA1A4"/>
<path d="M97.9891 31.8V13.944H100.941V16.536L100.653 15.888C101.101 15.184 101.709 14.64 102.477 14.256C103.245 13.856 104.133 13.656 105.141 13.656C106.373 13.656 107.485 13.96 108.477 14.568C109.469 15.176 110.253 15.992 110.829 17.016C111.421 18.04 111.717 19.192 111.717 20.472C111.717 21.736 111.429 22.888 110.853 23.928C110.277 24.968 109.493 25.792 108.501 26.4C107.509 26.992 106.381 27.288 105.117 27.288C104.173 27.288 103.301 27.104 102.501 26.736C101.717 26.352 101.093 25.808 100.629 25.104L101.133 24.48V31.8H97.9891ZM104.757 24.408C105.477 24.408 106.117 24.24 106.677 23.904C107.237 23.568 107.669 23.104 107.973 22.512C108.293 21.92 108.453 21.24 108.453 20.472C108.453 19.704 108.293 19.032 107.973 18.456C107.669 17.864 107.237 17.4 106.677 17.064C106.117 16.712 105.477 16.536 104.757 16.536C104.069 16.536 103.445 16.704 102.885 17.04C102.341 17.376 101.909 17.848 101.589 18.456C101.285 19.048 101.133 19.72 101.133 20.472C101.133 21.24 101.285 21.92 101.589 22.512C101.909 23.104 102.341 23.568 102.885 23.904C103.445 24.24 104.069 24.408 104.757 24.408Z" fill="#9FA1A4"/>
<path d="M114.114 27V8.83203H117.258V16.512L116.826 16.056C117.13 15.272 117.626 14.68 118.314 14.28C119.018 13.864 119.834 13.656 120.762 13.656C121.722 13.656 122.57 13.864 123.306 14.28C124.058 14.696 124.642 15.28 125.058 16.032C125.474 16.768 125.682 17.624 125.682 18.6V27H122.538V19.344C122.538 18.768 122.426 18.272 122.202 17.856C121.978 17.44 121.666 17.12 121.266 16.896C120.882 16.656 120.426 16.536 119.898 16.536C119.386 16.536 118.93 16.656 118.53 16.896C118.13 17.12 117.818 17.44 117.594 17.856C117.37 18.272 117.258 18.768 117.258 19.344V27H114.114Z" fill="#9FA1A4"/>
<path d="M132.301 27.288C131.389 27.288 130.597 27.136 129.925 26.832C129.253 26.528 128.733 26.096 128.365 25.536C127.997 24.96 127.813 24.296 127.813 23.544C127.813 22.824 127.973 22.184 128.293 21.624C128.613 21.048 129.109 20.568 129.781 20.184C130.453 19.8 131.301 19.528 132.325 19.368L136.597 18.672V21.072L132.925 21.696C132.301 21.808 131.837 22.008 131.533 22.296C131.229 22.584 131.077 22.96 131.077 23.424C131.077 23.872 131.245 24.232 131.581 24.504C131.933 24.76 132.365 24.888 132.877 24.888C133.533 24.888 134.109 24.752 134.605 24.48C135.117 24.192 135.509 23.8 135.781 23.304C136.069 22.808 136.213 22.264 136.213 21.672V18.312C136.213 17.752 135.989 17.288 135.541 16.92C135.109 16.536 134.533 16.344 133.813 16.344C133.141 16.344 132.541 16.528 132.013 16.896C131.501 17.248 131.125 17.72 130.885 18.312L128.317 17.064C128.573 16.376 128.973 15.784 129.517 15.288C130.077 14.776 130.733 14.376 131.485 14.088C132.237 13.8 133.053 13.656 133.933 13.656C135.005 13.656 135.949 13.856 136.765 14.256C137.581 14.64 138.213 15.184 138.661 15.888C139.125 16.576 139.357 17.384 139.357 18.312V27H136.381V24.768L137.053 24.72C136.717 25.28 136.317 25.752 135.853 26.136C135.389 26.504 134.861 26.792 134.269 27C133.677 27.192 133.021 27.288 132.301 27.288Z" fill="#9FA1A4"/>
</svg>