<svg xmlns="http://www.w3.org/2000/svg" width="134" height="34" viewBox="0 0 134 34" fill="none">
<path d="M15.4469 6.65234V2.40234H2.04688V31.6024H15.4469V27.3524C12.7019 27.3524 10.0693 26.2619 8.12831 24.3209C6.18731 22.3799 5.09687 19.7474 5.09687 17.0024C5.09687 14.2574 6.18731 11.6248 8.12831 9.68379C10.0693 7.74279 12.7019 6.65234 15.4469 6.65234Z" fill="#9FA1A4"/>
<path d="M15.4453 6.65234V27.3524C18.1903 27.3524 20.8229 26.2619 22.7639 24.3209C24.7049 22.3799 25.7953 19.7474 25.7953 17.0024C25.7953 14.2574 24.7049 11.6248 22.7639 9.68379C20.8229 7.74279 18.1903 6.65234 15.4453 6.65234Z" fill="#9FA1A4"/>
<path d="M126.2 12.7398C127.415 12.7398 128.4 11.7548 128.4 10.5398C128.4 9.32484 127.415 8.33984 126.2 8.33984C124.985 8.33984 124 9.32484 124 10.5398C124 11.7548 124.985 12.7398 126.2 12.7398Z" fill="#9FA1A4"/>
<path d="M39.6719 21.4414L43.6914 7.94141H47.6055L41.6641 25.0039H39.0859L39.6719 21.4414ZM35.9688 7.94141L39.9766 21.4414L40.5859 25.0039H37.9844L32.0781 7.94141H35.9688Z" fill="#9FA1A4"/>
<path d="M55.293 22.1445V16.4961C55.293 16.0898 55.2266 15.7422 55.0938 15.4531C54.9609 15.1562 54.7539 14.9258 54.4727 14.7617C54.1992 14.5977 53.8438 14.5156 53.4062 14.5156C53.0312 14.5156 52.707 14.582 52.4336 14.7148C52.1602 14.8398 51.9492 15.0234 51.8008 15.2656C51.6523 15.5 51.5781 15.7773 51.5781 16.0977H48.2031C48.2031 15.5586 48.3281 15.0469 48.5781 14.5625C48.8281 14.0781 49.1914 13.6523 49.668 13.2852C50.1445 12.9102 50.7109 12.6172 51.3672 12.4062C52.0312 12.1953 52.7734 12.0898 53.5938 12.0898C54.5781 12.0898 55.4531 12.2539 56.2188 12.582C56.9844 12.9102 57.5859 13.4023 58.0234 14.0586C58.4688 14.7148 58.6914 15.5352 58.6914 16.5195V21.9453C58.6914 22.6406 58.7344 23.2109 58.8203 23.6562C58.9062 24.0938 59.0312 24.4766 59.1953 24.8047V25.0039H55.7852C55.6211 24.6602 55.4961 24.2305 55.4102 23.7148C55.332 23.1914 55.293 22.668 55.293 22.1445ZM55.7383 17.2812L55.7617 19.1914H53.875C53.4297 19.1914 53.043 19.2422 52.7148 19.3438C52.3867 19.4453 52.1172 19.5898 51.9062 19.7773C51.6953 19.957 51.5391 20.168 51.4375 20.4102C51.3438 20.6523 51.2969 20.918 51.2969 21.207C51.2969 21.4961 51.3633 21.7578 51.4961 21.9922C51.6289 22.2188 51.8203 22.3984 52.0703 22.5312C52.3203 22.6562 52.6133 22.7188 52.9492 22.7188C53.457 22.7188 53.8984 22.6172 54.2734 22.4141C54.6484 22.2109 54.9375 21.9609 55.1406 21.6641C55.3516 21.3672 55.4609 21.0859 55.4688 20.8203L56.3594 22.25C56.2344 22.5703 56.0625 22.9023 55.8438 23.2461C55.6328 23.5898 55.3633 23.9141 55.0352 24.2188C54.707 24.5156 54.3125 24.7617 53.8516 24.957C53.3906 25.1445 52.8438 25.2383 52.2109 25.2383C51.4062 25.2383 50.6758 25.0781 50.0195 24.7578C49.3711 24.4297 48.8555 23.9805 48.4727 23.4102C48.0977 22.832 47.9102 22.1758 47.9102 21.4414C47.9102 20.7773 48.0352 20.1875 48.2852 19.6719C48.5352 19.1562 48.9023 18.7227 49.3867 18.3711C49.8789 18.0117 50.4922 17.7422 51.2266 17.5625C51.9609 17.375 52.8125 17.2812 53.7812 17.2812H55.7383Z" fill="#9FA1A4"/>
<path d="M64.5977 15.0312V25.0039H61.2227V12.3242H64.3867L64.5977 15.0312ZM64.1055 18.2188H63.1914C63.1914 17.2812 63.3125 16.4375 63.5547 15.6875C63.7969 14.9297 64.1367 14.2852 64.5742 13.7539C65.0117 13.2148 65.5312 12.8047 66.1328 12.5234C66.7422 12.2344 67.4219 12.0898 68.1719 12.0898C68.7656 12.0898 69.3086 12.1758 69.8008 12.3477C70.293 12.5195 70.7148 12.793 71.0664 13.168C71.4258 13.543 71.6992 14.0391 71.8867 14.6562C72.082 15.2734 72.1797 16.0273 72.1797 16.918V25.0039H68.7812V16.9062C68.7812 16.3438 68.7031 15.9062 68.5469 15.5938C68.3906 15.2812 68.1602 15.0625 67.8555 14.9375C67.5586 14.8047 67.1914 14.7383 66.7539 14.7383C66.3008 14.7383 65.9062 14.8281 65.5703 15.0078C65.2422 15.1875 64.9688 15.4375 64.75 15.7578C64.5391 16.0703 64.3789 16.4375 64.2695 16.8594C64.1602 17.2812 64.1055 17.7344 64.1055 18.2188Z" fill="#9FA1A4"/>
<path d="M79.0469 25.0039H75.6484V11.1992C75.6484 10.2383 75.8359 9.42969 76.2109 8.77344C76.5938 8.10938 77.1289 7.60938 77.8164 7.27344C78.5117 6.92969 79.3359 6.75781 80.2891 6.75781C80.6016 6.75781 80.9023 6.78125 81.1914 6.82812C81.4805 6.86719 81.7617 6.91797 82.0352 6.98047L82 9.52344C81.8516 9.48438 81.6953 9.45703 81.5312 9.44141C81.3672 9.42578 81.1758 9.41797 80.957 9.41797C80.5508 9.41797 80.2031 9.48828 79.9141 9.62891C79.6328 9.76172 79.418 9.96094 79.2695 10.2266C79.1211 10.4922 79.0469 10.8164 79.0469 11.1992V25.0039ZM81.5781 12.3242V14.7148H73.7617V12.3242H81.5781Z" fill="#9FA1A4"/>
<path d="M90.1914 22.1445V16.4961C90.1914 16.0898 90.125 15.7422 89.9922 15.4531C89.8594 15.1562 89.6523 14.9258 89.3711 14.7617C89.0977 14.5977 88.7422 14.5156 88.3047 14.5156C87.9297 14.5156 87.6055 14.582 87.332 14.7148C87.0586 14.8398 86.8477 15.0234 86.6992 15.2656C86.5508 15.5 86.4766 15.7773 86.4766 16.0977H83.1016C83.1016 15.5586 83.2266 15.0469 83.4766 14.5625C83.7266 14.0781 84.0898 13.6523 84.5664 13.2852C85.043 12.9102 85.6094 12.6172 86.2656 12.4062C86.9297 12.1953 87.6719 12.0898 88.4922 12.0898C89.4766 12.0898 90.3516 12.2539 91.1172 12.582C91.8828 12.9102 92.4844 13.4023 92.9219 14.0586C93.3672 14.7148 93.5898 15.5352 93.5898 16.5195V21.9453C93.5898 22.6406 93.6328 23.2109 93.7188 23.6562C93.8047 24.0938 93.9297 24.4766 94.0938 24.8047V25.0039H90.6836C90.5195 24.6602 90.3945 24.2305 90.3086 23.7148C90.2305 23.1914 90.1914 22.668 90.1914 22.1445ZM90.6367 17.2812L90.6602 19.1914H88.7734C88.3281 19.1914 87.9414 19.2422 87.6133 19.3438C87.2852 19.4453 87.0156 19.5898 86.8047 19.7773C86.5938 19.957 86.4375 20.168 86.3359 20.4102C86.2422 20.6523 86.1953 20.918 86.1953 21.207C86.1953 21.4961 86.2617 21.7578 86.3945 21.9922C86.5273 22.2188 86.7188 22.3984 86.9688 22.5312C87.2188 22.6562 87.5117 22.7188 87.8477 22.7188C88.3555 22.7188 88.7969 22.6172 89.1719 22.4141C89.5469 22.2109 89.8359 21.9609 90.0391 21.6641C90.25 21.3672 90.3594 21.0859 90.3672 20.8203L91.2578 22.25C91.1328 22.5703 90.9609 22.9023 90.7422 23.2461C90.5312 23.5898 90.2617 23.9141 89.9336 24.2188C89.6055 24.5156 89.2109 24.7617 88.75 24.957C88.2891 25.1445 87.7422 25.2383 87.1094 25.2383C86.3047 25.2383 85.5742 25.0781 84.918 24.7578C84.2695 24.4297 83.7539 23.9805 83.3711 23.4102C82.9961 22.832 82.8086 22.1758 82.8086 21.4414C82.8086 20.7773 82.9336 20.1875 83.1836 19.6719C83.4336 19.1562 83.8008 18.7227 84.2852 18.3711C84.7773 18.0117 85.3906 17.7422 86.125 17.5625C86.8594 17.375 87.7109 17.2812 88.6797 17.2812H90.6367Z" fill="#9FA1A4"/>
<path d="M96.1914 7.00391H99.5664V22.0977L99.2266 25.0039H96.1914V7.00391ZM107.594 18.5352V18.7812C107.594 19.7266 107.492 20.5938 107.289 21.3828C107.094 22.1719 106.789 22.8555 106.375 23.4336C105.961 24.0039 105.445 24.4492 104.828 24.7695C104.219 25.082 103.5 25.2383 102.672 25.2383C101.898 25.2383 101.227 25.082 100.656 24.7695C100.094 24.457 99.6211 24.0156 99.2383 23.4453C98.8555 22.875 98.5469 22.207 98.3125 21.4414C98.0781 20.6758 97.9023 19.8398 97.7852 18.9336V18.3945C97.9023 17.4883 98.0781 16.6523 98.3125 15.8867C98.5469 15.1211 98.8555 14.4531 99.2383 13.8828C99.6211 13.3125 100.094 12.8711 100.656 12.5586C101.219 12.2461 101.883 12.0898 102.648 12.0898C103.484 12.0898 104.211 12.25 104.828 12.5703C105.453 12.8828 105.969 13.3281 106.375 13.9062C106.789 14.4766 107.094 15.1562 107.289 15.9453C107.492 16.7266 107.594 17.5898 107.594 18.5352ZM104.219 18.7812V18.5352C104.219 18.0195 104.18 17.5352 104.102 17.082C104.031 16.6211 103.906 16.2188 103.727 15.875C103.547 15.5234 103.301 15.2461 102.988 15.043C102.684 14.8398 102.289 14.7383 101.805 14.7383C101.344 14.7383 100.953 14.8164 100.633 14.9727C100.312 15.1289 100.047 15.3477 99.8359 15.6289C99.6328 15.9102 99.4805 16.2461 99.3789 16.6367C99.2773 17.0195 99.2148 17.4414 99.1914 17.9023V19.4375C99.2148 20.0547 99.3164 20.6016 99.4961 21.0781C99.6836 21.5469 99.9648 21.918 100.34 22.1914C100.723 22.457 101.219 22.5898 101.828 22.5898C102.305 22.5898 102.699 22.4961 103.012 22.3086C103.324 22.1211 103.566 21.8555 103.738 21.5117C103.918 21.168 104.043 20.7656 104.113 20.3047C104.184 19.8359 104.219 19.3281 104.219 18.7812Z" fill="#9FA1A4"/>
<path d="M116.535 22.1445V16.4961C116.535 16.0898 116.469 15.7422 116.336 15.4531C116.203 15.1562 115.996 14.9258 115.715 14.7617C115.441 14.5977 115.086 14.5156 114.648 14.5156C114.273 14.5156 113.949 14.582 113.676 14.7148C113.402 14.8398 113.191 15.0234 113.043 15.2656C112.895 15.5 112.82 15.7773 112.82 16.0977H109.445C109.445 15.5586 109.57 15.0469 109.82 14.5625C110.07 14.0781 110.434 13.6523 110.91 13.2852C111.387 12.9102 111.953 12.6172 112.609 12.4062C113.273 12.1953 114.016 12.0898 114.836 12.0898C115.82 12.0898 116.695 12.2539 117.461 12.582C118.227 12.9102 118.828 13.4023 119.266 14.0586C119.711 14.7148 119.934 15.5352 119.934 16.5195V21.9453C119.934 22.6406 119.977 23.2109 120.062 23.6562C120.148 24.0938 120.273 24.4766 120.438 24.8047V25.0039H117.027C116.863 24.6602 116.738 24.2305 116.652 23.7148C116.574 23.1914 116.535 22.668 116.535 22.1445ZM116.98 17.2812L117.004 19.1914H115.117C114.672 19.1914 114.285 19.2422 113.957 19.3438C113.629 19.4453 113.359 19.5898 113.148 19.7773C112.938 19.957 112.781 20.168 112.68 20.4102C112.586 20.6523 112.539 20.918 112.539 21.207C112.539 21.4961 112.605 21.7578 112.738 21.9922C112.871 22.2188 113.062 22.3984 113.312 22.5312C113.562 22.6562 113.855 22.7188 114.191 22.7188C114.699 22.7188 115.141 22.6172 115.516 22.4141C115.891 22.2109 116.18 21.9609 116.383 21.6641C116.594 21.3672 116.703 21.0859 116.711 20.8203L117.602 22.25C117.477 22.5703 117.305 22.9023 117.086 23.2461C116.875 23.5898 116.605 23.9141 116.277 24.2188C115.949 24.5156 115.555 24.7617 115.094 24.957C114.633 25.1445 114.086 25.2383 113.453 25.2383C112.648 25.2383 111.918 25.0781 111.262 24.7578C110.613 24.4297 110.098 23.9805 109.715 23.4102C109.34 22.832 109.152 22.1758 109.152 21.4414C109.152 20.7773 109.277 20.1875 109.527 19.6719C109.777 19.1562 110.145 18.7227 110.629 18.3711C111.121 18.0117 111.734 17.7422 112.469 17.5625C113.203 17.375 114.055 17.2812 115.023 17.2812H116.98Z" fill="#9FA1A4"/>
</svg>