<svg xmlns="http://www.w3.org/2000/svg" width="60" height="60" viewBox="0 0 60 60" fill="none">
<path d="M54.375 44.9998H46.875V39.3748H52.5C52.7849 39.3748 53.0661 39.3098 53.3221 39.1849C53.5781 39.0599 53.8023 38.8782 53.9777 38.6537C54.153 38.4291 54.2748 38.1675 54.3339 37.8888C54.393 37.6101 54.3878 37.3216 54.3187 37.0452L46.8187 7.04515C46.7171 6.63973 46.483 6.27988 46.1535 6.02275C45.8239 5.76563 45.418 5.62598 45 5.62598C44.582 5.62598 44.1761 5.76563 43.8465 6.02275C43.517 6.27988 43.2829 6.63973 43.1813 7.04515L35.6813 37.0452C35.6122 37.3216 35.607 37.6101 35.6661 37.8888C35.7252 38.1675 35.847 38.4291 36.0223 38.6537C36.1977 38.8782 36.4219 39.0599 36.6779 39.1849C36.9339 39.3098 37.2151 39.3748 37.5 39.3748H43.125V44.9998H28.125V41.2498H30C30.4973 41.2498 30.9742 41.0523 31.3258 40.7007C31.6775 40.349 31.875 39.8721 31.875 39.3748C31.875 38.8776 31.6775 38.4006 31.3258 38.049C30.9742 37.6974 30.4973 37.4998 30 37.4998H28.125V33.7498H30C30.4973 33.7498 30.9742 33.5523 31.3258 33.2007C31.6775 32.849 31.875 32.3721 31.875 31.8748C31.875 31.3776 31.6775 30.9006 31.3258 30.549C30.9742 30.1974 30.4973 29.9998 30 29.9998H9.375C8.87772 29.9998 8.40081 30.1974 8.04918 30.549C7.69754 30.9006 7.5 31.3776 7.5 31.8748C7.5 32.3721 7.69754 32.849 8.04918 33.2007C8.40081 33.5523 8.87772 33.7498 9.375 33.7498H11.25V37.4998H9.375C8.87772 37.4998 8.40081 37.6974 8.04918 38.049C7.69754 38.4006 7.5 38.8776 7.5 39.3748C7.5 39.8721 7.69754 40.349 8.04918 40.7007C8.40081 41.0523 8.87772 41.2498 9.375 41.2498H11.25V44.9998H5.625C5.12772 44.9998 4.65081 45.1974 4.29917 45.549C3.94754 45.9006 3.75 46.3776 3.75 46.8748C3.75 47.3721 3.94754 47.849 4.29917 48.2007C4.65081 48.5523 5.12772 48.7498 5.625 48.7498H54.375C54.8723 48.7498 55.3492 48.5523 55.7008 48.2007C56.0525 47.849 56.25 47.3721 56.25 46.8748C56.25 46.3776 56.0525 45.9006 55.7008 45.549C55.3492 45.1974 54.8723 44.9998 54.375 44.9998ZM45 15.2342L50.0977 35.6248H39.9023L45 15.2342ZM15 33.7498H24.375V37.4998H15V33.7498ZM15 41.2498H24.375V44.9998H15V41.2498ZM27.1875 22.4998C28.4854 22.4998 29.7542 22.115 30.8334 21.3939C31.9126 20.6728 32.7538 19.6478 33.2505 18.4487C33.7472 17.2496 33.8771 15.9301 33.6239 14.6571C33.3707 13.3841 32.7457 12.2147 31.8279 11.297C30.9101 10.3792 29.7408 9.75415 28.4678 9.50094C27.1948 9.24772 25.8753 9.37768 24.6761 9.87438C23.477 10.3711 22.4521 11.2122 21.731 12.2914C21.0099 13.3706 20.625 14.6394 20.625 15.9373C20.625 17.6778 21.3164 19.347 22.5471 20.5777C23.7778 21.8084 25.447 22.4998 27.1875 22.4998ZM27.1875 13.1248C27.7438 13.1248 28.2875 13.2898 28.75 13.5988C29.2126 13.9079 29.573 14.3471 29.7859 14.861C29.9988 15.375 30.0545 15.9405 29.946 16.486C29.8374 17.0316 29.5696 17.5327 29.1762 17.9261C28.7829 18.3194 28.2818 18.5873 27.7362 18.6958C27.1906 18.8043 26.6251 18.7486 26.1112 18.5358C25.5973 18.3229 25.158 17.9624 24.849 17.4999C24.5399 17.0374 24.375 16.4936 24.375 15.9373C24.375 15.1914 24.6713 14.4761 25.1988 13.9486C25.7262 13.4212 26.4416 13.1248 27.1875 13.1248Z" fill="#140F50"/>
</svg>