<svg xmlns="http://www.w3.org/2000/svg" width="49" height="34" viewBox="0 0 49 34" fill="none">
<path d="M0 1.875C0 1.37772 0.197544 0.900806 0.549175 0.549175C0.900806 0.197544 1.37772 0 1.875 0H43.125C43.6223 0 44.0992 0.197544 44.4508 0.549175C44.8025 0.900806 45 1.37772 45 1.875C45 2.37228 44.8025 2.84919 44.4508 3.20082C44.0992 3.55246 43.6223 3.75 43.125 3.75H1.875C1.37772 3.75 0.900806 3.55246 0.549175 3.20082C0.197544 2.84919 0 2.37228 0 1.875ZM1.875 18.75H18.75C19.2473 18.75 19.7242 18.5525 20.0758 18.2008C20.4275 17.8492 20.625 17.3723 20.625 16.875C20.625 16.3777 20.4275 15.9008 20.0758 15.5492C19.7242 15.1975 19.2473 15 18.75 15H1.875C1.37772 15 0.900806 15.1975 0.549175 15.5492C0.197544 15.9008 0 16.3777 0 16.875C0 17.3723 0.197544 17.8492 0.549175 18.2008C0.900806 18.5525 1.37772 18.75 1.875 18.75ZM22.5 30H1.875C1.37772 30 0.900806 30.1975 0.549175 30.5492C0.197544 30.9008 0 31.3777 0 31.875C0 32.3723 0.197544 32.8492 0.549175 33.2008C0.900806 33.5525 1.37772 33.75 1.875 33.75H22.5C22.9973 33.75 23.4742 33.5525 23.8258 33.2008C24.1775 32.8492 24.375 32.3723 24.375 31.875C24.375 31.3777 24.1775 30.9008 23.8258 30.5492C23.4742 30.1975 22.9973 30 22.5 30ZM48.2016 33.2016C48.0274 33.3759 47.8206 33.5142 47.593 33.6086C47.3654 33.7029 47.1214 33.7515 46.875 33.7515C46.6286 33.7515 46.3846 33.7029 46.157 33.6086C45.9294 33.5142 45.7226 33.3759 45.5484 33.2016L40.7813 28.4438C38.8426 29.7228 36.4981 30.2367 34.2022 29.8858C31.9063 29.535 29.8223 28.3443 28.3541 26.5447C26.8859 24.745 26.138 22.4644 26.2554 20.1447C26.3727 17.8251 27.347 15.6316 28.9893 13.9893C30.6316 12.347 32.8251 11.3727 35.1447 11.2554C37.4644 11.138 39.745 11.8859 41.5447 13.3541C43.3443 14.8223 44.535 16.9063 44.8858 19.2022C45.2367 21.4981 44.7228 23.8426 43.4438 25.7813L48.2016 30.5391C48.3773 30.7134 48.5168 30.9207 48.612 31.1492C48.7072 31.3777 48.7562 31.6228 48.7562 31.8703C48.7562 32.1178 48.7072 32.3629 48.612 32.5914C48.5168 32.8199 48.3773 33.0273 48.2016 33.2016ZM35.625 26.25C36.7375 26.25 37.8251 25.9201 38.7501 25.302C39.6751 24.6839 40.3961 23.8054 40.8218 22.7776C41.2476 21.7498 41.359 20.6188 41.1419 19.5276C40.9249 18.4365 40.3891 17.4342 39.6025 16.6475C38.8158 15.8609 37.8135 15.3251 36.7224 15.1081C35.6312 14.891 34.5002 15.0024 33.4724 15.4282C32.4446 15.8539 31.5661 16.5749 30.948 17.4999C30.3299 18.4249 30 19.5125 30 20.625C30 22.1168 30.5926 23.5476 31.6475 24.6025C32.7024 25.6574 34.1332 26.25 35.625 26.25Z" fill="#140F50"/>
</svg>