<svg xmlns="http://www.w3.org/2000/svg" width="60" height="60" viewBox="0 0 60 60" fill="none">
<g clip-path="url(#clip0_18931_368)">
<path d="M58.125 28.125H56.25V20.625C56.25 19.6304 55.8549 18.6766 55.1516 17.9734C54.4484 17.2701 53.4946 16.875 52.5 16.875H48.75V15C48.75 14.0054 48.3549 13.0516 47.6516 12.3483C46.9484 11.6451 45.9946 11.25 45 11.25H39.375C38.3804 11.25 37.4266 11.6451 36.7234 12.3483C36.0201 13.0516 35.625 14.0054 35.625 15V28.125H24.375V15C24.375 14.0054 23.9799 13.0516 23.2766 12.3483C22.5734 11.6451 21.6196 11.25 20.625 11.25H15C14.0054 11.25 13.0516 11.6451 12.3483 12.3483C11.6451 13.0516 11.25 14.0054 11.25 15V16.875H7.5C6.50544 16.875 5.55161 17.2701 4.84835 17.9734C4.14509 18.6766 3.75 19.6304 3.75 20.625V28.125H1.875C1.37772 28.125 0.900806 28.3225 0.549175 28.6742C0.197544 29.0258 0 29.5027 0 30C0 30.4973 0.197544 30.9742 0.549175 31.3258C0.900806 31.6775 1.37772 31.875 1.875 31.875H3.75V39.375C3.75 40.3696 4.14509 41.3234 4.84835 42.0266C5.55161 42.7299 6.50544 43.125 7.5 43.125H11.25V45C11.25 45.9946 11.6451 46.9484 12.3483 47.6516C13.0516 48.3549 14.0054 48.75 15 48.75H20.625C21.6196 48.75 22.5734 48.3549 23.2766 47.6516C23.9799 46.9484 24.375 45.9946 24.375 45V31.875H35.625V45C35.625 45.9946 36.0201 46.9484 36.7234 47.6516C37.4266 48.3549 38.3804 48.75 39.375 48.75H45C45.9946 48.75 46.9484 48.3549 47.6516 47.6516C48.3549 46.9484 48.75 45.9946 48.75 45V43.125H52.5C53.4946 43.125 54.4484 42.7299 55.1516 42.0266C55.8549 41.3234 56.25 40.3696 56.25 39.375V31.875H58.125C58.6223 31.875 59.0992 31.6775 59.4508 31.3258C59.8025 30.9742 60 30.4973 60 30C60 29.5027 59.8025 29.0258 59.4508 28.6742C59.0992 28.3225 58.6223 28.125 58.125 28.125ZM7.5 39.375V20.625H11.25V39.375H7.5ZM20.625 45H15V15H20.625V45ZM45 45H39.375V15H45V41.2078C45 41.2219 45 41.2359 45 41.25C45 41.2641 45 41.2781 45 41.2922V45ZM52.5 39.375H48.75V20.625H52.5V39.375Z" fill="#140F50"/>
</g>
<defs>
<clipPath id="clip0_18931_368">
<rect width="60" height="60" fill="white"/>
</clipPath>
</defs>
</svg>